<svg xmlns="http://www.w3.org/2000/svg" xmlns:xlink="http://www.w3.org/1999/xlink" width="1024" zoomAndPan="magnify" viewBox="0 0 768 767.999994" height="1024" preserveAspectRatio="xMidYMid meet" version="1.0"><defs><g/></defs><rect x="-76.8" width="921.6" fill="#ffffff" y="-76.799999" height="921.599993" fill-opacity="1"/><rect x="-76.8" width="921.6" fill="#222831" y="-76.799999" height="921.599993" fill-opacity="1"/><g fill="#ffffff" fill-opacity="1"><g transform="translate(270.526662, 130.712298)"><g><path d="M 185.792969 181.054688 L 235.539062 186.808594 C 241.96875 172.253906 245.015625 156.011719 245.015625 139.089844 C 245.015625 -24.703125 -0.675781 -25.042969 -0.675781 139.089844 C -0.675781 156.011719 3.382812 177.332031 9.476562 192.222656 L 59.5625 185.792969 C 54.824219 176.65625 48.730469 160.070312 48.730469 139.089844 C 48.730469 43.316406 196.28125 43.316406 196.28125 139.089844 C 196.28125 160.070312 190.53125 171.917969 185.792969 181.054688 Z M 185.792969 181.054688 "/></g></g></g><g fill="#ffffff" fill-opacity="1"><g transform="translate(115.309079, 525.444261)"><g><path d="M 159.167969 -208.339844 L 159.167969 -260.425781 L 29.136719 -260.425781 L 29.136719 0 L 81.222656 0 L 81.222656 -104.171875 L 147.511719 -104.171875 L 147.511719 -156.253906 L 81.222656 -156.253906 L 81.222656 -208.339844 Z M 159.167969 -208.339844 "/></g></g></g><g fill="#ffffff" fill-opacity="1"><g transform="translate(242.071837, 520.724462)"><g><path d="M 148.605469 -150.0625 L 45.894531 -264.433594 L 29.136719 -264.433594 L 29.136719 0 L 81.953125 0 L 81.953125 -145.328125 L 148.605469 -75.394531 L 215.261719 -145.328125 L 214.894531 0 L 267.710938 0 L 267.710938 -264.433594 L 251.320312 -264.433594 Z M 148.605469 -150.0625 "/></g></g></g><g fill="#ffffff" fill-opacity="1"><g transform="translate(440.338661, 520.688991)"><g><path d="M 104.410156 -254.789062 L 28.507812 -254.789062 L 28.507812 0 L 104.410156 0 C 274.03125 0 274.03125 -254.789062 104.410156 -254.789062 Z M 104.410156 -203.832031 C 203.476562 -203.832031 203.476562 -50.957031 104.410156 -50.957031 L 79.464844 -50.957031 L 79.464844 -203.832031 Z M 104.410156 -203.832031 "/></g></g></g><g fill="#ffffff" fill-opacity="1"><g transform="translate(141.908829, 531.549823)"><g><path d="M 15.191406 -163.121094 L 15.191406 -109.949219 L 160.722656 -109.949219 L 160.722656 -163.121094 Z M 15.191406 -163.121094 "/></g></g></g></svg>
